<svg width="112" height="112" viewBox="0 0 112 112" fill="none" xmlns="http://www.w3.org/2000/svg">
<path d="M32.8159 33.3198H30.7999H29.2879L12.1519 74.5918H13.6639H15.6799H17.1359L34.2719 33.3198H32.8159Z" fill="white"/>
<path d="M43.9037 74.5923H36.5117V47.1523H43.7357V50.5683C45.4157 47.7123 48.7197 46.4243 51.6877 46.4243C58.5197 46.4243 61.5997 51.2963 61.5997 57.2883V74.5923H54.1517V58.5763C54.1517 55.4963 52.6397 53.0883 49.0557 53.0883C45.8077 53.0883 43.9037 55.6083 43.9037 58.8003V74.5923Z" fill="white"/>
<path d="M83.4404 58.688L94.6404 74.592H85.5684L78.2884 64.12L75.2084 67.368V74.592H67.8164V35H75.2084V57.344L84.7284 47.152H94.4164L83.4404 58.688Z" fill="white"/>
</svg>
